%TF.GenerationSoftware,KiCad,Pcbnew,(6.0.10-0)*%
%TF.CreationDate,2023-02-17T12:31:35-08:00*%
%TF.ProjectId,Lab4exercise2,4c616234-6578-4657-9263-697365322e6b,rev?*%
%TF.SameCoordinates,Original*%
%TF.FileFunction,Legend,Top*%
%TF.FilePolarity,Positive*%
%FSLAX46Y46*%
G04 Gerber Fmt 4.6, Leading zero omitted, Abs format (unit mm)*
G04 Created by KiCad (PCBNEW (6.0.10-0)) date 2023-02-17 12:31:35*
%MOMM*%
%LPD*%
G01*
G04 APERTURE LIST*
%ADD10C,0.150000*%
%ADD11C,0.120000*%
G04 APERTURE END LIST*
D10*
%TO.C,R3*%
X127693333Y-96312380D02*
X127360000Y-95836190D01*
X127121904Y-96312380D02*
X127121904Y-95312380D01*
X127502857Y-95312380D01*
X127598095Y-95360000D01*
X127645714Y-95407619D01*
X127693333Y-95502857D01*
X127693333Y-95645714D01*
X127645714Y-95740952D01*
X127598095Y-95788571D01*
X127502857Y-95836190D01*
X127121904Y-95836190D01*
X128026666Y-95312380D02*
X128645714Y-95312380D01*
X128312380Y-95693333D01*
X128455238Y-95693333D01*
X128550476Y-95740952D01*
X128598095Y-95788571D01*
X128645714Y-95883809D01*
X128645714Y-96121904D01*
X128598095Y-96217142D01*
X128550476Y-96264761D01*
X128455238Y-96312380D01*
X128169523Y-96312380D01*
X128074285Y-96264761D01*
X128026666Y-96217142D01*
%TO.C,J1*%
X135932380Y-90223333D02*
X136646666Y-90223333D01*
X136789523Y-90270952D01*
X136884761Y-90366190D01*
X136932380Y-90509047D01*
X136932380Y-90604285D01*
X136932380Y-89223333D02*
X136932380Y-89794761D01*
X136932380Y-89509047D02*
X135932380Y-89509047D01*
X136075238Y-89604285D01*
X136170476Y-89699523D01*
X136218095Y-89794761D01*
%TO.C,U1*%
X150988095Y-103722380D02*
X150988095Y-104531904D01*
X151035714Y-104627142D01*
X151083333Y-104674761D01*
X151178571Y-104722380D01*
X151369047Y-104722380D01*
X151464285Y-104674761D01*
X151511904Y-104627142D01*
X151559523Y-104531904D01*
X151559523Y-103722380D01*
X152559523Y-104722380D02*
X151988095Y-104722380D01*
X152273809Y-104722380D02*
X152273809Y-103722380D01*
X152178571Y-103865238D01*
X152083333Y-103960476D01*
X151988095Y-104008095D01*
%TO.C,R4*%
X136822380Y-107836666D02*
X136346190Y-108170000D01*
X136822380Y-108408095D02*
X135822380Y-108408095D01*
X135822380Y-108027142D01*
X135870000Y-107931904D01*
X135917619Y-107884285D01*
X136012857Y-107836666D01*
X136155714Y-107836666D01*
X136250952Y-107884285D01*
X136298571Y-107931904D01*
X136346190Y-108027142D01*
X136346190Y-108408095D01*
X136155714Y-106979523D02*
X136822380Y-106979523D01*
X135774761Y-107217619D02*
X136489047Y-107455714D01*
X136489047Y-106836666D01*
%TO.C,R2*%
X159063333Y-114812380D02*
X158730000Y-114336190D01*
X158491904Y-114812380D02*
X158491904Y-113812380D01*
X158872857Y-113812380D01*
X158968095Y-113860000D01*
X159015714Y-113907619D01*
X159063333Y-114002857D01*
X159063333Y-114145714D01*
X159015714Y-114240952D01*
X158968095Y-114288571D01*
X158872857Y-114336190D01*
X158491904Y-114336190D01*
X159444285Y-113907619D02*
X159491904Y-113860000D01*
X159587142Y-113812380D01*
X159825238Y-113812380D01*
X159920476Y-113860000D01*
X159968095Y-113907619D01*
X160015714Y-114002857D01*
X160015714Y-114098095D01*
X159968095Y-114240952D01*
X159396666Y-114812380D01*
X160015714Y-114812380D01*
%TO.C,C2*%
X156297142Y-114655414D02*
X156344761Y-114703033D01*
X156392380Y-114845890D01*
X156392380Y-114941128D01*
X156344761Y-115083986D01*
X156249523Y-115179224D01*
X156154285Y-115226843D01*
X155963809Y-115274462D01*
X155820952Y-115274462D01*
X155630476Y-115226843D01*
X155535238Y-115179224D01*
X155440000Y-115083986D01*
X155392380Y-114941128D01*
X155392380Y-114845890D01*
X155440000Y-114703033D01*
X155487619Y-114655414D01*
X155487619Y-114274462D02*
X155440000Y-114226843D01*
X155392380Y-114131605D01*
X155392380Y-113893509D01*
X155440000Y-113798271D01*
X155487619Y-113750652D01*
X155582857Y-113703033D01*
X155678095Y-113703033D01*
X155820952Y-113750652D01*
X156392380Y-114322081D01*
X156392380Y-113703033D01*
%TO.C,C1*%
X151553333Y-119937142D02*
X151505714Y-119984761D01*
X151362857Y-120032380D01*
X151267619Y-120032380D01*
X151124761Y-119984761D01*
X151029523Y-119889523D01*
X150981904Y-119794285D01*
X150934285Y-119603809D01*
X150934285Y-119460952D01*
X150981904Y-119270476D01*
X151029523Y-119175238D01*
X151124761Y-119080000D01*
X151267619Y-119032380D01*
X151362857Y-119032380D01*
X151505714Y-119080000D01*
X151553333Y-119127619D01*
X152505714Y-120032380D02*
X151934285Y-120032380D01*
X152220000Y-120032380D02*
X152220000Y-119032380D01*
X152124761Y-119175238D01*
X152029523Y-119270476D01*
X151934285Y-119318095D01*
%TO.C,D2*%
X138281904Y-101222380D02*
X138281904Y-100222380D01*
X138520000Y-100222380D01*
X138662857Y-100270000D01*
X138758095Y-100365238D01*
X138805714Y-100460476D01*
X138853333Y-100650952D01*
X138853333Y-100793809D01*
X138805714Y-100984285D01*
X138758095Y-101079523D01*
X138662857Y-101174761D01*
X138520000Y-101222380D01*
X138281904Y-101222380D01*
X139234285Y-100317619D02*
X139281904Y-100270000D01*
X139377142Y-100222380D01*
X139615238Y-100222380D01*
X139710476Y-100270000D01*
X139758095Y-100317619D01*
X139805714Y-100412857D01*
X139805714Y-100508095D01*
X139758095Y-100650952D01*
X139186666Y-101222380D01*
X139805714Y-101222380D01*
%TO.C,R1*%
X161451188Y-107281666D02*
X160974998Y-107615000D01*
X161451188Y-107853095D02*
X160451188Y-107853095D01*
X160451188Y-107472142D01*
X160498808Y-107376904D01*
X160546427Y-107329285D01*
X160641665Y-107281666D01*
X160784522Y-107281666D01*
X160879760Y-107329285D01*
X160927379Y-107376904D01*
X160974998Y-107472142D01*
X160974998Y-107853095D01*
X161451188Y-106329285D02*
X161451188Y-106900714D01*
X161451188Y-106615000D02*
X160451188Y-106615000D01*
X160594046Y-106710238D01*
X160689284Y-106805476D01*
X160736903Y-106900714D01*
%TO.C,D1*%
X137069404Y-111577380D02*
X137069404Y-110577380D01*
X137307500Y-110577380D01*
X137450357Y-110625000D01*
X137545595Y-110720238D01*
X137593214Y-110815476D01*
X137640833Y-111005952D01*
X137640833Y-111148809D01*
X137593214Y-111339285D01*
X137545595Y-111434523D01*
X137450357Y-111529761D01*
X137307500Y-111577380D01*
X137069404Y-111577380D01*
X138593214Y-111577380D02*
X138021785Y-111577380D01*
X138307500Y-111577380D02*
X138307500Y-110577380D01*
X138212261Y-110720238D01*
X138117023Y-110815476D01*
X138021785Y-110863095D01*
D11*
%TO.C,R3*%
X127632936Y-96775000D02*
X128087064Y-96775000D01*
X127632936Y-98245000D02*
X128087064Y-98245000D01*
%TO.C,J1*%
X145370000Y-94970000D02*
X145370000Y-84810000D01*
X137750000Y-84810000D02*
X137750000Y-94970000D01*
X137750000Y-94970000D02*
X145370000Y-94970000D01*
X145370000Y-84810000D02*
X137750000Y-84810000D01*
X144100000Y-84810000D02*
X144100000Y-94970000D01*
%TO.C,U1*%
X151750000Y-110230000D02*
X153700000Y-110230000D01*
X151750000Y-110230000D02*
X149800000Y-110230000D01*
X151750000Y-105110000D02*
X148300000Y-105110000D01*
X151750000Y-105110000D02*
X153700000Y-105110000D01*
%TO.C,R4*%
X137285000Y-107897064D02*
X137285000Y-107442936D01*
X138755000Y-107897064D02*
X138755000Y-107442936D01*
%TO.C,R2*%
X159457064Y-113445000D02*
X159002936Y-113445000D01*
X159457064Y-111975000D02*
X159002936Y-111975000D01*
%TO.C,C2*%
X154995000Y-114227496D02*
X154995000Y-114750000D01*
X153525000Y-114227496D02*
X153525000Y-114750000D01*
%TO.C,C1*%
X150120000Y-118765000D02*
X154205000Y-118765000D01*
X154205000Y-118765000D02*
X154205000Y-116895000D01*
X154205000Y-116895000D02*
X150120000Y-116895000D01*
%TO.C,D2*%
X140620000Y-101455000D02*
X136560000Y-101455000D01*
X136560000Y-101455000D02*
X136560000Y-103725000D01*
X136560000Y-103725000D02*
X140620000Y-103725000D01*
%TO.C,R1*%
X158613808Y-106887936D02*
X158613808Y-107342064D01*
X160083808Y-106887936D02*
X160083808Y-107342064D01*
%TO.C,D1*%
X139407500Y-111810000D02*
X135347500Y-111810000D01*
X135347500Y-114080000D02*
X139407500Y-114080000D01*
X135347500Y-111810000D02*
X135347500Y-114080000D01*
%TD*%
M02*
