%TF.GenerationSoftware,KiCad,Pcbnew,(6.0.10-0)*%
%TF.CreationDate,2023-02-17T12:31:34-08:00*%
%TF.ProjectId,Lab4exercise2,4c616234-6578-4657-9263-697365322e6b,rev?*%
%TF.SameCoordinates,Original*%
%TF.FileFunction,Copper,L1,Top*%
%TF.FilePolarity,Positive*%
%FSLAX46Y46*%
G04 Gerber Fmt 4.6, Leading zero omitted, Abs format (unit mm)*
G04 Created by KiCad (PCBNEW (6.0.10-0)) date 2023-02-17 12:31:34*
%MOMM*%
%LPD*%
G01*
G04 APERTURE LIST*
G04 Aperture macros list*
%AMRoundRect*
0 Rectangle with rounded corners*
0 $1 Rounding radius*
0 $2 $3 $4 $5 $6 $7 $8 $9 X,Y pos of 4 corners*
0 Add a 4 corners polygon primitive as box body*
4,1,4,$2,$3,$4,$5,$6,$7,$8,$9,$2,$3,0*
0 Add four circle primitives for the rounded corners*
1,1,$1+$1,$2,$3*
1,1,$1+$1,$4,$5*
1,1,$1+$1,$6,$7*
1,1,$1+$1,$8,$9*
0 Add four rect primitives between the rounded corners*
20,1,$1+$1,$2,$3,$4,$5,0*
20,1,$1+$1,$4,$5,$6,$7,0*
20,1,$1+$1,$6,$7,$8,$9,0*
20,1,$1+$1,$8,$9,$2,$3,0*%
G04 Aperture macros list end*
%TA.AperFunction,SMDPad,CuDef*%
%ADD10RoundRect,0.250000X-0.350000X-0.450000X0.350000X-0.450000X0.350000X0.450000X-0.350000X0.450000X0*%
%TD*%
%TA.AperFunction,ComponentPad*%
%ADD11R,3.000000X3.000000*%
%TD*%
%TA.AperFunction,ComponentPad*%
%ADD12C,3.000000*%
%TD*%
%TA.AperFunction,SMDPad,CuDef*%
%ADD13RoundRect,0.150000X-0.825000X-0.150000X0.825000X-0.150000X0.825000X0.150000X-0.825000X0.150000X0*%
%TD*%
%TA.AperFunction,SMDPad,CuDef*%
%ADD14R,2.290000X3.000000*%
%TD*%
%TA.AperFunction,SMDPad,CuDef*%
%ADD15RoundRect,0.250000X0.450000X-0.350000X0.450000X0.350000X-0.450000X0.350000X-0.450000X-0.350000X0*%
%TD*%
%TA.AperFunction,SMDPad,CuDef*%
%ADD16RoundRect,0.250000X0.350000X0.450000X-0.350000X0.450000X-0.350000X-0.450000X0.350000X-0.450000X0*%
%TD*%
%TA.AperFunction,SMDPad,CuDef*%
%ADD17RoundRect,0.250000X-0.475000X0.337500X-0.475000X-0.337500X0.475000X-0.337500X0.475000X0.337500X0*%
%TD*%
%TA.AperFunction,SMDPad,CuDef*%
%ADD18RoundRect,0.250000X0.537500X0.425000X-0.537500X0.425000X-0.537500X-0.425000X0.537500X-0.425000X0*%
%TD*%
%TA.AperFunction,SMDPad,CuDef*%
%ADD19RoundRect,0.250001X-0.462499X-0.624999X0.462499X-0.624999X0.462499X0.624999X-0.462499X0.624999X0*%
%TD*%
%TA.AperFunction,SMDPad,CuDef*%
%ADD20RoundRect,0.250000X-0.450000X0.350000X-0.450000X-0.350000X0.450000X-0.350000X0.450000X0.350000X0*%
%TD*%
%TA.AperFunction,ViaPad*%
%ADD21C,0.800000*%
%TD*%
%TA.AperFunction,Conductor*%
%ADD22C,0.254000*%
%TD*%
G04 APERTURE END LIST*
D10*
%TO.P,R3,1*%
%TO.N,Net-(D1-Pad1)*%
X126860000Y-97510000D03*
%TO.P,R3,2*%
%TO.N,/pin_3*%
X128860000Y-97510000D03*
%TD*%
D11*
%TO.P,J1,1,Pin_1*%
%TO.N,+9V*%
X141560000Y-92430000D03*
D12*
%TO.P,J1,2,Pin_2*%
%TO.N,GND*%
X141560000Y-87350000D03*
%TD*%
D13*
%TO.P,U1,1,GND*%
%TO.N,GND*%
X149275000Y-105765000D03*
%TO.P,U1,2,TR*%
%TO.N,/pin_2*%
X149275000Y-107035000D03*
%TO.P,U1,3,Q*%
%TO.N,/pin_3*%
X149275000Y-108305000D03*
%TO.P,U1,4,R*%
%TO.N,+9V*%
X149275000Y-109575000D03*
%TO.P,U1,5,CV*%
%TO.N,Net-(C2-Pad1)*%
X154225000Y-109575000D03*
%TO.P,U1,6,THR*%
%TO.N,/pin_2*%
X154225000Y-108305000D03*
%TO.P,U1,7,DIS*%
%TO.N,/pin_7*%
X154225000Y-107035000D03*
%TO.P,U1,8,VCC*%
%TO.N,+9V*%
X154225000Y-105765000D03*
D14*
%TO.P,U1,9*%
%TO.N,N/C*%
X151750000Y-107670000D03*
%TD*%
D15*
%TO.P,R4,1*%
%TO.N,/pin_3*%
X138020000Y-108670000D03*
%TO.P,R4,2*%
%TO.N,Net-(D2-Pad2)*%
X138020000Y-106670000D03*
%TD*%
D16*
%TO.P,R2,1*%
%TO.N,/pin_7*%
X160230000Y-112710000D03*
%TO.P,R2,2*%
%TO.N,/pin_2*%
X158230000Y-112710000D03*
%TD*%
D17*
%TO.P,C2,1*%
%TO.N,Net-(C2-Pad1)*%
X154260000Y-113451248D03*
%TO.P,C2,2*%
%TO.N,GND*%
X154260000Y-115526248D03*
%TD*%
D18*
%TO.P,C1,1*%
%TO.N,/pin_2*%
X153157500Y-117830000D03*
%TO.P,C1,2*%
%TO.N,GND*%
X150282500Y-117830000D03*
%TD*%
D19*
%TO.P,D2,1,K*%
%TO.N,GND*%
X137532500Y-102590000D03*
%TO.P,D2,2,A*%
%TO.N,Net-(D2-Pad2)*%
X140507500Y-102590000D03*
%TD*%
D20*
%TO.P,R1,1*%
%TO.N,+9V*%
X159348808Y-106115000D03*
%TO.P,R1,2*%
%TO.N,/pin_7*%
X159348808Y-108115000D03*
%TD*%
D19*
%TO.P,D1,1,K*%
%TO.N,Net-(D1-Pad1)*%
X136320000Y-112945000D03*
%TO.P,D1,2,A*%
%TO.N,+9V*%
X139295000Y-112945000D03*
%TD*%
D21*
%TO.N,*%
X144550000Y-106450000D03*
%TO.N,/pin_2*%
X145256755Y-107156755D03*
X152400000Y-121920000D03*
%TO.N,GND*%
X144780000Y-104140000D03*
X149860000Y-114300000D03*
%TD*%
D22*
%TO.N,/pin_2*%
X156840000Y-112710000D02*
X158230000Y-112710000D01*
X154860000Y-107670000D02*
X156800000Y-107670000D01*
X145913510Y-106500000D02*
X145256755Y-107156755D01*
X155312000Y-117212000D02*
X155095000Y-116995000D01*
X149133000Y-107177000D02*
X147077000Y-107177000D01*
X155312000Y-119008000D02*
X155312000Y-117212000D01*
X147077000Y-107177000D02*
X146400000Y-106500000D01*
X152400000Y-121920000D02*
X155312000Y-119008000D01*
X156840000Y-115250000D02*
X156840000Y-112710000D01*
X154260000Y-117830000D02*
X155095000Y-116995000D01*
X153157500Y-117830000D02*
X154260000Y-117830000D01*
X156800000Y-112750000D02*
X156840000Y-112710000D01*
X149275000Y-107035000D02*
X149133000Y-107177000D01*
X155095000Y-116995000D02*
X156840000Y-115250000D01*
X146400000Y-106500000D02*
X145913510Y-106500000D01*
X154225000Y-108305000D02*
X154860000Y-107670000D01*
X156800000Y-107670000D02*
X156800000Y-112750000D01*
%TO.N,GND*%
X146060000Y-102860000D02*
X144780000Y-104140000D01*
X146370000Y-102860000D02*
X143560000Y-100050000D01*
X136480000Y-87350000D02*
X141560000Y-87350000D01*
X146370000Y-102860000D02*
X146060000Y-102860000D01*
X136480000Y-101537500D02*
X136480000Y-100050000D01*
X136480000Y-100050000D02*
X136480000Y-87350000D01*
X151360004Y-114300000D02*
X152586252Y-115526248D01*
X149860000Y-114300000D02*
X151360004Y-114300000D01*
X152586252Y-115526248D02*
X150282500Y-117830000D01*
X154260000Y-115526248D02*
X152586252Y-115526248D01*
X137532500Y-102590000D02*
X136480000Y-101537500D01*
X149275000Y-105765000D02*
X146370000Y-102860000D01*
X143560000Y-100050000D02*
X136480000Y-100050000D01*
%TO.N,Net-(C2-Pad1)*%
X154260000Y-109610000D02*
X154225000Y-109575000D01*
X154260000Y-113451248D02*
X154260000Y-109610000D01*
%TO.N,Net-(D1-Pad1)*%
X126860000Y-97510000D02*
X126860000Y-103485000D01*
X126860000Y-103485000D02*
X136320000Y-112945000D01*
%TO.N,+9V*%
X141560000Y-112750000D02*
X141560000Y-120370000D01*
X146640000Y-98180000D02*
X154225000Y-105765000D01*
X146640000Y-110210000D02*
X142030000Y-110210000D01*
X158998808Y-105765000D02*
X154225000Y-105765000D01*
X161880000Y-108646192D02*
X161880000Y-120370000D01*
X149275000Y-109575000D02*
X148640000Y-110210000D01*
X144100000Y-122910000D02*
X159340000Y-122910000D01*
X141560000Y-112750000D02*
X144100000Y-110210000D01*
X146640000Y-92430000D02*
X146640000Y-98180000D01*
X148640000Y-110210000D02*
X146640000Y-110210000D01*
X141560000Y-120370000D02*
X144100000Y-122910000D01*
X159348808Y-106115000D02*
X158998808Y-105765000D01*
X159348808Y-106115000D02*
X161880000Y-108646192D01*
X141560000Y-92430000D02*
X146640000Y-92430000D01*
X142030000Y-110210000D02*
X139295000Y-112945000D01*
X159340000Y-122910000D02*
X161880000Y-120370000D01*
%TO.N,Net-(D2-Pad2)*%
X140507500Y-104182500D02*
X140507500Y-102590000D01*
X138020000Y-106670000D02*
X140507500Y-104182500D01*
X137532500Y-106182500D02*
X138020000Y-106670000D01*
%TO.N,/pin_7*%
X158268808Y-107035000D02*
X154225000Y-107035000D01*
X160230000Y-112710000D02*
X159348808Y-111828808D01*
X159348808Y-111828808D02*
X159348808Y-108115000D01*
X159348808Y-108115000D02*
X158268808Y-107035000D01*
%TO.N,/pin_3*%
X138385000Y-108305000D02*
X149275000Y-108305000D01*
X138020000Y-108670000D02*
X138385000Y-108305000D01*
X128860000Y-97510000D02*
X128860000Y-99510000D01*
X128860000Y-99510000D02*
X138020000Y-108670000D01*
%TD*%
M02*
